PathFileType	4	(X/Y/Z)	C:\Users\Graham\Documents\MATLAB\MOtoNMS_v2_2\MyData\ElaboratedData\S4\17-05-18\staticElaborations\Static1\Static1\\Static1.trc
DataRate	CameraRate	NumFrames	NumMarkers	Units	OrigDataRate	DataStartFrame
100	100	8	38	mm	100	2
Frame#	Time	V_Sacral			R_ASIS			L_ASIS			R_Knee_Lat			R_Knee_Med			R_Thigh_Upper			R_Thigh_Front			R_Thigh_Rear			L_Knee_Lat			L_Knee_Med			L_Thigh_Upper			L_Thigh_Front			L_Thigh_Rear			R_Ankle_Lat			R_Ankle_Med			R_Shank_Upper			R_Shank_Front			R_Shank_Rear			L_Ankle_Lat			L_Ankle_Med			L_Shank_Upper			L_Shank_Front			L_Shank_Rear			R_Heel			R_MTP1			R_MTP5			L_Heel			L_MTP1			L_MTP5			Clavicle			R_Acromium			L_Acromium			LAJC			RAJC			LHJC			RHJC			LKJC			RKJC		
		X1	Y1	Z1	X2	Y2	Z2	X3	Y3	Z3	X4	Y4	Z4	X5	Y5	Z5	X6	Y6	Z6	X7	Y7	Z7	X8	Y8	Z8	X9	Y9	Z9	X10	Y10	Z10	X11	Y11	Z11	X12	Y12	Z12	X13	Y13	Z13	X14	Y14	Z14	X15	Y15	Z15	X16	Y16	Z16	X17	Y17	Z17	X18	Y18	Z18	X19	Y19	Z19	X20	Y20	Z20	X21	Y21	Z21	X22	Y22	Z22	X23	Y23	Z23	X24	Y24	Z24	X25	Y25	Z25	X26	Y26	Z26	X27	Y27	Z27	X28	Y28	Z28	X29	Y29	Z29	X30	Y30	Z30	X31	Y31	Z31	X32	Y32	Z32	X33	Y33	Z33	X34	Y34	Z34	X35	Y35	Z35	X36	Y36	Z36	X37	Y37	Z37	X38	Y38	Z38	

23	0.220000	-146.019320	1012.392367	18.053123	54.318784	983.683824	150.467362	74.168002	976.727469	-84.136285	-53.695593	506.669616	204.760231	-50.141575	494.169663	94.609366	79.673149	739.194449	141.769624	30.325889	633.231747	91.513120	31.506180	625.496636	176.059417	-62.786153	512.872591	-159.153942	-78.011227	486.394437	-40.268147	85.065861	757.886009	-70.331176	35.462266	644.843906	-33.354601	49.310922	640.294025	-109.397825	-155.852474	103.172330	223.445483	-132.966501	119.413460	131.046341	-34.631823	329.461605	190.796231	-89.613207	224.532605	144.874638	-91.988735	226.257502	226.560296	-147.134574	96.592376	-152.903585	-125.543388	120.455106	-61.368712	-43.801544	367.425227	-125.740944	-82.460614	252.309055	-85.632391	-77.745578	254.938195	-166.628507	-226.192965	57.222963	179.896750	4.625743	64.443432	165.938267	-9.125555	58.511403	238.631983	-220.384067	54.918269	-105.063962	8.427355	60.945006	-83.094500	-15.825760	55.447257	-171.488023	6.350039	1394.690672	14.736791	-82.855880	1446.509187	204.375433	-77.888738	1440.246361	-179.233540	-136.338981	108.523741	-107.136149	-144.409488	111.292895	177.245912	-1.171122	906.285330	-55.547917	-15.501940	911.307706	113.832166	-70.398690	499.633514	-99.711045	-51.918584	500.419639	149.684798	
24	0.230000	-145.965581	1012.391710	18.025786	54.365296	983.670926	150.434516	74.216379	976.716488	-84.158150	-53.643649	506.664982	204.740554	-50.077343	494.171081	94.611799	79.724449	739.185830	141.750043	30.392776	633.223729	91.492531	31.559715	625.488705	176.038564	-62.757346	512.867944	-159.169646	-77.998243	486.397173	-40.281932	85.111158	757.873317	-70.346190	35.486700	644.827026	-33.369145	49.353290	640.280671	-109.410569	-155.838664	103.177910	223.442649	-132.960846	119.413279	131.040270	-34.598250	329.451427	190.777490	-89.521594	224.544763	144.836670	-91.961548	226.259210	226.549652	-147.130580	96.596566	-152.900140	-125.537581	120.457752	-61.365377	-43.786917	367.427102	-125.744569	-82.447429	252.317129	-85.632574	-77.731342	254.938949	-166.627975	-226.190160	57.230082	179.894515	4.634538	64.448305	165.928070	-9.122829	58.508525	238.630795	-220.381648	54.926761	-105.061279	8.432451	60.938049	-83.089801	-15.823080	55.446089	-171.487057	6.440103	1394.682565	14.713265	-82.768077	1446.502429	204.354575	-77.797224	1440.248174	-179.253460	-136.334080	108.527159	-107.132759	-144.399755	111.295595	177.241459	-1.125345	906.281217	-55.573404	-15.457566	911.302230	113.799421	-70.377794	499.632559	-99.725789	-51.860496	500.418032	149.676177	
25	0.240000	-145.913175	1012.388166	18.001062	54.412290	983.656729	150.401092	74.263994	976.705202	-84.180630	-53.591088	506.659464	204.722700	-50.012894	494.172088	94.617625	79.776064	739.175082	141.730715	30.459916	633.216123	91.472266	31.612553	625.479744	176.018495	-62.726850	512.862002	-159.184928	-77.982710	486.399997	-40.293044	85.156956	757.860715	-70.360168	35.518711	644.813500	-33.383286	49.398410	640.267062	-109.424017	-155.826769	103.183916	223.440204	-132.953478	119.414533	131.033614	-34.564653	329.440393	190.758782	-89.407780	224.565402	144.794660	-91.933978	226.259980	226.538981	-147.126848	96.600141	-152.897145	-125.531826	120.460229	-61.362807	-43.770965	367.427139	-125.748789	-82.434738	252.324257	-85.635443	-77.716872	254.938248	-166.628134	-226.188294	57.236875	179.892385	4.644615	64.459202	165.914991	-9.120188	58.506177	238.630184	-220.379490	54.934630	-105.058669	8.437630	60.932728	-83.088022	-15.820328	55.445120	-171.486345	6.527716	1394.672075	14.691208	-82.676645	1446.492600	204.336569	-77.709633	1440.250410	-179.269121	-136.329337	108.530185	-107.129976	-144.390123	111.299225	177.236909	-1.079549	906.275938	-55.599348	-15.412276	911.294870	113.766250	-70.354780	499.630999	-99.738986	-51.801991	500.415776	149.670163	
26	0.250000	-145.861624	1012.382117	17.978968	54.460034	983.641358	150.367333	74.311248	976.693570	-84.204094	-53.538308	506.653218	204.706651	-49.948157	494.173636	94.627512	79.827972	739.162399	141.711285	30.526504	633.208896	91.452098	31.664172	625.469668	175.999390	-62.695196	512.854810	-159.199923	-77.965241	486.402575	-40.300319	85.203290	757.848206	-70.373479	35.557222	644.802098	-33.397482	49.446117	640.253306	-109.438467	-155.817001	103.190258	223.438153	-132.944788	119.416876	131.026600	-34.531340	329.428809	190.740462	-89.276048	224.597509	144.751892	-91.906589	226.259598	226.528371	-147.123235	96.603152	-152.894733	-125.526030	120.462400	-61.361171	-43.753903	367.425439	-125.754258	-82.422503	252.330372	-85.641085	-77.702473	254.936149	-166.629534	-226.187246	57.243369	179.890363	4.655258	64.474274	165.900060	-9.117641	58.504484	238.629928	-220.377519	54.941747	-105.056219	8.442980	60.929244	-83.089635	-15.817498	55.444246	-171.485828	6.612380	1394.659362	14.670543	-82.581893	1446.479457	204.321383	-77.626005	1440.252448	-179.280965	-136.324633	108.532776	-107.127952	-144.380895	111.303567	177.232376	-1.033478	906.269408	-55.626002	-15.365906	911.285659	113.732805	-70.330218	499.628693	-99.750121	-51.743232	500.413427	149.667082	
27	0.260000	-145.810388	1012.374125	17.959560	54.508829	983.625010	150.333636	74.358493	976.681614	-84.228768	-53.485410	506.646411	204.692243	-49.882908	494.176653	94.641994	79.880355	739.148225	141.691404	30.592075	633.201990	91.431815	31.714290	625.458443	175.981315	-62.663096	512.846532	-159.214766	-77.946747	486.404525	-40.302753	85.250083	757.835803	-70.386687	35.600814	644.791552	-33.412276	49.495978	640.239557	-109.454209	-155.809243	103.196832	223.436448	-132.935064	119.419956	131.019412	-34.498406	329.416941	190.722808	-89.129700	224.646333	144.712144	-91.879782	226.257929	226.517877	-147.119580	96.605670	-152.893009	-125.520138	120.464131	-61.360533	-43.736075	367.422245	-125.761538	-82.410572	252.335456	-85.649285	-77.688509	254.932841	-166.632634	-226.186798	57.249673	179.888434	4.666027	64.491982	165.884088	-9.115141	58.503476	238.629767	-220.375621	54.948028	-105.054012	8.448563	60.927792	-83.095125	-15.814588	55.443343	-171.485440	6.693891	1394.644787	14.651197	-82.484282	1446.463010	204.308985	-77.546445	1440.253643	-179.289470	-136.319859	108.534901	-107.126771	-144.372154	111.308394	177.227930	-0.986949	906.261647	-55.653452	-15.318306	911.274743	113.699412	-70.304921	499.625529	-99.758759	-51.684159	500.411532	149.667119	
28	0.270000	-145.758937	1012.364855	17.942943	54.558984	983.607945	150.300518	74.406020	976.669417	-84.254698	-53.432316	506.639211	204.679225	-49.817021	494.181863	94.661316	79.933523	739.133165	141.670789	30.656459	633.195330	91.411235	31.762842	625.446079	175.964220	-62.631376	512.837433	-159.229532	-77.928273	486.405499	-40.299697	85.297146	757.823512	-70.400434	35.647940	644.780797	-33.428201	49.547307	640.225991	-109.471467	-155.803099	103.203527	223.434986	-132.924497	119.423437	131.012179	-34.465791	329.405022	190.705991	-88.971664	224.718138	144.679394	-91.853767	226.254954	226.507530	-147.115739	96.607785	-152.892031	-125.514139	120.465327	-61.360855	-43.717929	367.417912	-125.770996	-82.398720	252.339536	-85.659589	-77.675370	254.928633	-166.637732	-226.186662	57.255953	179.886571	4.676753	64.511153	165.867637	-9.112614	58.503060	238.629434	-220.373681	54.953433	-105.052108	8.454383	60.928485	-83.104825	-15.811608	55.442289	-171.485116	6.772337	1394.628862	14.633122	-82.384368	1446.443551	204.299351	-77.471092	1440.253499	-179.295077	-136.314939	108.536556	-107.126443	-144.363798	111.313482	177.223582	-0.939842	906.252768	-55.681591	-15.269341	911.262363	113.666548	-70.279824	499.621466	-99.764615	-51.624668	500.410537	149.670270	
29	0.280000	-145.706816	1012.355002	17.929274	54.610802	983.590476	150.268554	74.454038	976.657114	-84.281748	-53.378932	506.631789	204.667322	-49.750695	494.189641	94.685323	79.987783	739.117860	141.649265	30.719681	633.188833	91.390227	31.809942	625.432638	175.947967	-62.600883	512.827852	-159.244186	-77.910774	486.405273	-40.291052	85.344186	757.811334	-70.415313	35.697084	644.769128	-33.445678	49.599208	640.212784	-109.490348	-155.797999	103.210235	223.433610	-132.913226	119.427006	131.004971	-34.433376	329.393259	190.690075	-88.805036	224.818567	144.657345	-91.828578	226.250798	226.497361	-147.111613	96.609586	-152.891783	-125.508072	120.465950	-61.362007	-43.699974	367.412868	-125.782729	-82.386713	252.342680	-85.671385	-77.663449	254.923919	-166.644911	-226.186514	57.262375	179.884736	4.687451	64.530908	165.851074	-9.110001	58.503032	238.628682	-220.371609	54.957974	-105.050519	8.460381	60.931270	-83.118717	-15.808594	55.440984	-171.484789	6.848069	1394.612192	14.616321	-82.282727	1446.421638	204.292467	-77.400067	1440.251852	-179.298104	-136.309843	108.537768	-107.126895	-144.355613	111.318621	177.219291	-0.892103	906.242972	-55.710135	-15.218886	911.248848	113.634787	-70.255828	499.616562	-99.767619	-51.564814	500.410715	149.676323	
30	0.290000	-145.653686	1012.345244	17.918751	54.664556	983.572944	150.238294	74.502672	976.644874	-84.309627	-53.325315	506.624325	204.656307	-49.684600	494.199930	94.713398	80.043309	739.102866	141.626789	30.781823	633.182442	91.368738	31.855823	625.418245	175.932376	-62.572395	512.818167	-159.258551	-77.894876	486.403810	-40.277412	85.390826	757.799260	-70.431756	35.746893	644.756276	-33.464923	49.650641	640.200093	-109.510807	-155.793321	103.216850	223.432132	-132.901423	119.430376	130.997830	-34.401086	329.381856	190.675040	-88.633268	224.950897	144.648736	-91.804115	226.245745	226.487425	-147.107179	96.611159	-152.892160	-125.502009	120.466031	-61.363785	-43.682730	367.407562	-125.796532	-82.374369	252.344987	-85.683988	-77.653105	254.919133	-166.654012	-226.186040	57.269051	179.882884	4.698203	64.550500	165.834675	-9.107283	58.503102	238.627312	-220.369369	54.961709	-105.049199	8.466448	60.935858	-83.136258	-15.805612	55.439371	-171.484389	6.921630	1394.595415	14.600878	-82.179900	1446.398048	204.288336	-77.333402	1440.249025	-179.298680	-136.304594	108.538595	-107.127973	-144.347372	111.323613	177.214981	-0.843739	906.232528	-55.738662	-15.166840	911.234588	113.604724	-70.233635	499.610988	-99.767982	-51.504958	500.412128	149.684853	
